# xmcd
#
# Track frame offsets:
#	150
#	20437
#	49600
#	69087
#	96792
#	124837
#	146045
#	172430
#	197162
#	222400
#	238887
#	266645
#	284742
#	305287
#
# Disc length: 4405 seconds
#
# Revision: 1
# Processed by: cddbd v1.5.1PL0 Copyright (c) Steve Scherf et al.
# Submitted via: CDex 1.50Beta5
#
DISCID=dd11330e
DTITLE=虎舞竜,THE - ベスト〜ロード〜第4章
DYEAR=1997
DGENRE=Rock
TTITLE0=ロード
TTITLE1=祈り
TTITLE2=道化師
TTITLE3=ヨコハマ・レイニーナイト
TTITLE4=ひとりぼっちのクリスマス
TTITLE5=ロード
TTITLE6=それぞれのロード
TTITLE7=シンデレラ
TTITLE8=ロード
TTITLE9=あきらめずに行こう!!
TTITLE10=あなたの瞳を守ってあげたい
TTITLE11=Ah,if I fell
TTITLE12=泣いてばかりじゃいられない
TTITLE13=ロード
EXTD=
EXTT0=
EXTT1=
EXTT2=
EXTT3=
EXTT4=
EXTT5=
EXTT6=
EXTT7=
EXTT8=
EXTT9=
EXTT10=
EXTT11=
EXTT12=
EXTT13=
PLAYORDER=
